# xmcd
#
# Track frame offsets: 
#        150
#        4417
#        24226
#        40216
#        58052
#        71874
#        108313
#        133544
#        148721
#        164218
#        185517
#        204469
#        218317
#        236515
#        255529
#
# Disc length: 3499 seconds
#
# Revision: 0
# Processed by: cddbd v1.5.2PL0 Copyright (c) Steve Scherf et al.
# Submitted via: ExactAudioCopyFreeDBPlugin 1.0
#
DISCID=d90da90f
DTITLE=Hot'n'Nasty - Dirt
DYEAR=2018
DGENRE=Blues
TTITLE0=Daylight
TTITLE1=Shake the Devil's Hand
TTITLE2=Back on Track
TTITLE3=Somewhere, somehow, someday
TTITLE4=Take a Ride
TTITLE5=It's only Money
TTITLE6=Almost like you're here
TTITLE7=Real Thing
TTITLE8=Crisin'
TTITLE9=So much better than this
TTITLE10=She talks
TTITLE11=Drifting
TTITLE12=Go to the Woman
TTITLE13=Land of a thousand Lies
TTITLE14=Daylight (Reprise)
EXTD=
EXTT0=
EXTT1=
EXTT2=
EXTT3=
EXTT4=
EXTT5=
EXTT6=
EXTT7=
EXTT8=
EXTT9=
EXTT10=
EXTT11=
EXTT12=
EXTT13=
EXTT14=
PLAYORDER=
